<svg width="48" height="48" viewBox="0 0 48 48" fill="none" xmlns="http://www.w3.org/2000/svg">
<rect x="1" y="1" width="46" height="46" fill="white"/>
<rect x="1" y="1" width="46" height="46" stroke="white" stroke-width="2" stroke-dasharray="5 5"/>
<path d="M20.0055 34C19.455 34 18.9838 33.8042 18.5917 33.4125C18.1997 33.0208 18.0037 32.55 18.0037 32C18.0037 31.45 18.1997 30.9792 18.5917 30.5875C18.9838 30.1958 19.455 30 20.0055 30C20.5561 30 21.0273 30.1958 21.4194 30.5875C21.8114 30.9792 22.0074 31.45 22.0074 32C22.0074 32.55 21.8114 33.0208 21.4194 33.4125C21.0273 33.8042 20.5561 34 20.0055 34ZM30.0148 34C29.4643 34 28.993 33.8042 28.601 33.4125C28.209 33.0208 28.0129 32.55 28.0129 32C28.0129 31.45 28.209 30.9792 28.601 30.5875C28.993 30.1958 29.4643 30 30.0148 30C30.5653 30 31.0366 30.1958 31.4286 30.5875C31.8206 30.9792 32.0166 31.45 32.0166 32C32.0166 32.55 31.8206 33.0208 31.4286 33.4125C31.0366 33.8042 30.5653 34 30.0148 34ZM19.1548 18L21.557 23H28.5635L31.316 18H19.1548ZM18.2039 16H32.9675C33.3512 16 33.6431 16.1708 33.8433 16.5125C34.0435 16.8542 34.0519 17.2 33.8684 17.55L30.3151 23.95C30.1316 24.2833 29.8855 24.5417 29.5769 24.725C29.2683 24.9083 28.9305 25 28.5635 25H21.1066L20.0055 27H31.0157C31.2993 27 31.537 27.0958 31.7289 27.2875C31.9207 27.4792 32.0166 27.7167 32.0166 28C32.0166 28.2833 31.9207 28.5208 31.7289 28.7125C31.537 28.9042 31.2993 29 31.0157 29H20.0055C19.2549 29 18.6877 28.6708 18.304 28.0125C17.9203 27.3542 17.9036 26.7 18.2539 26.05L19.6052 23.6L16.0018 16H15.0009C14.7173 16 14.4796 15.9042 14.2878 15.7125C14.0959 15.5208 14 15.2833 14 15C14 14.7167 14.0959 14.4792 14.2878 14.2875C14.4796 14.0958 14.7173 14 15.0009 14H16.6274C16.8109 14 16.9861 14.05 17.1529 14.15C17.3197 14.25 17.4448 14.3917 17.5283 14.575L18.2039 16Z" fill="#231F20"/>
</svg>
